<mxfile host="app.diagrams.net" agent="Mozilla/5.0 (Windows NT 10.0; Win64; x64) AppleWebKit/537.36 (KHTML, like Gecko) Chrome/133.0.0.0 Safari/537.36 Edg/133.0.0.0" version="26.0.16">
  <diagram name="Страница — 1" id="CH-gyCdV8qXRPrySREJX">
    <mxGraphModel dx="2117" dy="611" grid="1" gridSize="10" guides="1" tooltips="1" connect="1" arrows="1" fold="1" page="1" pageScale="1" pageWidth="827" pageHeight="1169" math="0" shadow="0">
      <root>
        <mxCell id="0" />
        <mxCell id="1" parent="0" />
        <mxCell id="NQtwNvBP9n-oJzRsLv0h-11" style="edgeStyle=orthogonalEdgeStyle;rounded=0;orthogonalLoop=1;jettySize=auto;html=1;entryX=0.5;entryY=0;entryDx=0;entryDy=0;" edge="1" parent="1" source="NQtwNvBP9n-oJzRsLv0h-2" target="NQtwNvBP9n-oJzRsLv0h-3">
          <mxGeometry relative="1" as="geometry" />
        </mxCell>
        <mxCell id="NQtwNvBP9n-oJzRsLv0h-12" style="edgeStyle=orthogonalEdgeStyle;rounded=0;orthogonalLoop=1;jettySize=auto;html=1;entryX=0.5;entryY=0;entryDx=0;entryDy=0;" edge="1" parent="1" source="NQtwNvBP9n-oJzRsLv0h-2" target="NQtwNvBP9n-oJzRsLv0h-4">
          <mxGeometry relative="1" as="geometry" />
        </mxCell>
        <mxCell id="NQtwNvBP9n-oJzRsLv0h-2" value="23" style="rounded=0;whiteSpace=wrap;html=1;" vertex="1" parent="1">
          <mxGeometry x="480" y="180" width="120" height="60" as="geometry" />
        </mxCell>
        <mxCell id="NQtwNvBP9n-oJzRsLv0h-13" style="edgeStyle=orthogonalEdgeStyle;rounded=0;orthogonalLoop=1;jettySize=auto;html=1;entryX=0.5;entryY=0;entryDx=0;entryDy=0;" edge="1" parent="1" source="NQtwNvBP9n-oJzRsLv0h-3" target="NQtwNvBP9n-oJzRsLv0h-5">
          <mxGeometry relative="1" as="geometry" />
        </mxCell>
        <mxCell id="NQtwNvBP9n-oJzRsLv0h-14" style="edgeStyle=orthogonalEdgeStyle;rounded=0;orthogonalLoop=1;jettySize=auto;html=1;entryX=0.5;entryY=0;entryDx=0;entryDy=0;" edge="1" parent="1" source="NQtwNvBP9n-oJzRsLv0h-3" target="NQtwNvBP9n-oJzRsLv0h-6">
          <mxGeometry relative="1" as="geometry" />
        </mxCell>
        <mxCell id="NQtwNvBP9n-oJzRsLv0h-3" value="23&lt;div&gt;(5-4)&lt;/div&gt;" style="rounded=0;whiteSpace=wrap;html=1;" vertex="1" parent="1">
          <mxGeometry x="320" y="280" width="120" height="60" as="geometry" />
        </mxCell>
        <mxCell id="NQtwNvBP9n-oJzRsLv0h-4" value="127&lt;div&gt;(5-4)*&lt;/div&gt;" style="rounded=0;whiteSpace=wrap;html=1;" vertex="1" parent="1">
          <mxGeometry x="640" y="280" width="120" height="60" as="geometry" />
        </mxCell>
        <mxCell id="NQtwNvBP9n-oJzRsLv0h-15" style="edgeStyle=orthogonalEdgeStyle;rounded=0;orthogonalLoop=1;jettySize=auto;html=1;entryX=0.5;entryY=0;entryDx=0;entryDy=0;" edge="1" parent="1" source="NQtwNvBP9n-oJzRsLv0h-5" target="NQtwNvBP9n-oJzRsLv0h-8">
          <mxGeometry relative="1" as="geometry" />
        </mxCell>
        <mxCell id="NQtwNvBP9n-oJzRsLv0h-16" style="edgeStyle=orthogonalEdgeStyle;rounded=0;orthogonalLoop=1;jettySize=auto;html=1;entryX=0.5;entryY=0;entryDx=0;entryDy=0;" edge="1" parent="1" source="NQtwNvBP9n-oJzRsLv0h-5" target="NQtwNvBP9n-oJzRsLv0h-7">
          <mxGeometry relative="1" as="geometry" />
        </mxCell>
        <mxCell id="NQtwNvBP9n-oJzRsLv0h-5" value="23&lt;div&gt;(1-5)&lt;/div&gt;" style="rounded=0;whiteSpace=wrap;html=1;" vertex="1" parent="1">
          <mxGeometry x="200" y="380" width="120" height="60" as="geometry" />
        </mxCell>
        <mxCell id="NQtwNvBP9n-oJzRsLv0h-6" value="72&lt;div&gt;(1-5)*&lt;/div&gt;" style="rounded=0;whiteSpace=wrap;html=1;" vertex="1" parent="1">
          <mxGeometry x="430" y="380" width="120" height="60" as="geometry" />
        </mxCell>
        <mxCell id="NQtwNvBP9n-oJzRsLv0h-7" value="&lt;br&gt;&lt;div&gt;78&lt;/div&gt;&lt;div&gt;(3-2)*&lt;/div&gt;" style="rounded=0;whiteSpace=wrap;html=1;" vertex="1" parent="1">
          <mxGeometry x="320" y="480" width="120" height="60" as="geometry" />
        </mxCell>
        <mxCell id="NQtwNvBP9n-oJzRsLv0h-17" style="edgeStyle=orthogonalEdgeStyle;rounded=0;orthogonalLoop=1;jettySize=auto;html=1;" edge="1" parent="1" source="NQtwNvBP9n-oJzRsLv0h-8" target="NQtwNvBP9n-oJzRsLv0h-10">
          <mxGeometry relative="1" as="geometry" />
        </mxCell>
        <mxCell id="NQtwNvBP9n-oJzRsLv0h-18" style="edgeStyle=orthogonalEdgeStyle;rounded=0;orthogonalLoop=1;jettySize=auto;html=1;" edge="1" parent="1" source="NQtwNvBP9n-oJzRsLv0h-8" target="NQtwNvBP9n-oJzRsLv0h-9">
          <mxGeometry relative="1" as="geometry" />
        </mxCell>
        <mxCell id="NQtwNvBP9n-oJzRsLv0h-8" value="23&lt;div&gt;(3-2)&lt;/div&gt;" style="rounded=0;whiteSpace=wrap;html=1;" vertex="1" parent="1">
          <mxGeometry x="80" y="480" width="120" height="60" as="geometry" />
        </mxCell>
        <mxCell id="NQtwNvBP9n-oJzRsLv0h-9" value="inf&lt;div&gt;(2-1)*&lt;/div&gt;" style="rounded=0;whiteSpace=wrap;html=1;" vertex="1" parent="1">
          <mxGeometry x="200" y="584.5" width="120" height="60" as="geometry" />
        </mxCell>
        <mxCell id="NQtwNvBP9n-oJzRsLv0h-10" value="23&lt;div&gt;(2-1)&lt;/div&gt;" style="rounded=0;whiteSpace=wrap;html=1;" vertex="1" parent="1">
          <mxGeometry x="-30" y="585" width="120" height="60" as="geometry" />
        </mxCell>
      </root>
    </mxGraphModel>
  </diagram>
</mxfile>
